<?xml version="1.0" encoding="utf-8"?>
<svg viewBox="0 0 500 500" xmlns="http://www.w3.org/2000/svg" xmlns:bx="https://boxy-svg.com">
  <defs>
    <filter id="grayscale-filter-0" x="-500%" y="-500%" width="1000%" height="1000%" bx:preset="grayscale 1 1">
      <feColorMatrix type="matrix" values="0.213 0.715 0.072 0 0 0.213 0.715 0.072 0 0 0.213 0.715 0.072 0 0 0 0 0 1 0"/>
    </filter>
    <linearGradient gradientUnits="userSpaceOnUse" x1="263.922" y1="77.186" x2="263.922" y2="379.324" id="gradient-0">
      <stop offset="0" style="stop-color: rgba(216, 216, 216, 1)"/>
      <stop offset="1" style="stop-color: rgba(165, 165, 165, 1)"/>
    </linearGradient>
  </defs>
  <path style="filter: url(#grayscale-filter-0); stroke: rgba(0, 0, 0, 0.07); fill: url(#gradient-0); fill-rule: nonzero;" d="M 146.938 99.641 C 130.674 87.125 159.388 95.061 169.887 98.655 C 174.04 100.077 172.824 93.83 188.867 93.061 C 188.149 93.061 193.639 83.095 196.695 80.638 C 205.924 73.218 204.82 79.048 204.696 86.035 C 204.639 89.271 202.972 99.936 211.729 103.477 C 213.265 104.098 226.109 113.009 232.018 124.366 C 237.563 135.023 241.012 128.944 248.227 132.04 C 254.425 134.7 270.028 154.726 280.971 179.405 C 297.138 215.864 311.599 291.348 294.08 313.144 C 292.301 315.358 291.719 316.448 288.512 317.539 C 280.863 320.141 286.431 333.526 311.079 355.346 C 323.158 366.039 341.23 367.505 360.022 347.434 C 363.601 343.612 356.762 334.33 344.782 331.9 C 339.629 330.855 344.513 329.291 358.263 324.28 C 364.355 322.06 358.2 317.273 340.972 312.851 C 335.584 311.468 340.371 308.635 355.332 304.352 C 362.438 302.318 361.755 291.181 347.42 280.32 C 344.523 278.125 338.173 267.281 345.368 263.615 C 350.043 261.233 360.105 273.932 365.004 280.612 C 369.758 287.095 374.154 294.911 376.433 302.887 C 377.849 307.844 373.258 310.481 362.659 310.213 C 354.919 310.017 361.073 314.999 382.295 322.815 C 388.281 325.02 387.89 324.726 370.572 328.383 C 363.602 329.855 360.183 329.269 376.726 338.348 C 387.592 344.312 369.129 385.635 318.991 378.499 C 300.673 375.892 265.628 346.507 241.89 334.463 C 234.29 330.606 224.168 330.521 220.916 331.068 C 196.311 335.205 149.634 314.3 151.416 239.459 C 151.584 232.408 158.159 221.06 167.97 219.723 C 171.47 219.246 176.421 218.349 181.483 227.549 C 183.774 231.713 188.668 236.27 193.267 231.557 C 197.86 226.85 202.702 226.43 201.886 175.832 C 201.784 169.537 199.471 163.203 198.792 160.161 C 197.827 155.838 195.949 151.289 186.906 157.754 C 180.418 162.392 175.696 161.665 171.03 158.047 C 168.333 155.956 167.843 155.817 165.705 155.857 C 163.318 155.901 162.425 155.003 161.847 152.08 C 161.661 151.274 161.635 153.96 157.769 148.306 C 156.779 146.858 156.09 146.857 158.001 143.626 C 160.422 139.533 160.395 137.954 157.123 132.53 C 155.648 130.085 153.621 129.972 156.809 125.9 C 158.406 123.861 158.532 119.73 158.718 113.388 C 158.864 108.42 152.445 103.265 146.938 99.641 Z"/>
</svg>